<svg xmlns="http://www.w3.org/2000/svg" width="1200" height="205" viewBox="0 0 1200 205"><rect width="1200" height="205" fill="#F6F0E5"/><text x="40" y="59" font-family="Georgia, serif" font-size="32" font-weight="400" fill="#70283D" >A prayer for each part of your day.</text><g transform="translate(40 108)" fill="none" stroke="#70283D" stroke-width="1.8" stroke-linecap="round" stroke-linejoin="round"><path d="M12 6V2M12 26V22M2 14H6M18 14H22M5 7L3 5M19 7L21 5M5 21L3 23M19 21L21 23M17 14A5 5 0 1 1 7 14A5 5 0 1 1 17 14"/></g><text x="40" y="163" font-family="Helvetica Neue, Arial, sans-serif" font-size="19" font-weight="400" fill="#252524" >Daily Prayer</text><g transform="translate(271 108)" fill="none" stroke="#70283D" stroke-width="1.8" stroke-linecap="round" stroke-linejoin="round"><path d="M12 2V26M3 10H21"/></g><text x="271" y="163" font-family="Helvetica Neue, Arial, sans-serif" font-size="19" font-weight="400" fill="#252524" >Marian &amp; Rosary</text><g transform="translate(502 108)" fill="none" stroke="#70283D" stroke-width="1.8" stroke-linecap="round" stroke-linejoin="round"><path d="M2 4Q7 1 12 5Q17 1 22 4V24Q17 21 12 25Q7 21 2 24ZM12 5V25"/></g><text x="502" y="163" font-family="Helvetica Neue, Arial, sans-serif" font-size="19" font-weight="400" fill="#252524" >Confession</text><g transform="translate(733 108)" fill="none" stroke="#70283D" stroke-width="1.8" stroke-linecap="round" stroke-linejoin="round"><path d="M2 4Q7 1 12 5Q17 1 22 4V24Q17 21 12 25Q7 21 2 24ZM12 5V25"/></g><text x="733" y="163" font-family="Helvetica Neue, Arial, sans-serif" font-size="19" font-weight="400" fill="#252524" >Psalms &amp; Other</text><g transform="translate(964 108)" fill="none" stroke="#70283D" stroke-width="1.8" stroke-linecap="round" stroke-linejoin="round"><path d="M4 2H20V26L12 21 4 26Z"/></g><text x="964" y="163" font-family="Helvetica Neue, Arial, sans-serif" font-size="19" font-weight="400" fill="#252524" >Prayer Cards</text></svg>